<svg width="833" height="833" viewBox="0 0 833 833" fill="none" xmlns="http://www.w3.org/2000/svg">
<path d="M598.502 339.624C597.959 318.448 597.914 297.226 596.738 276.095C595.109 246.429 587.103 239.16 557.115 238.844C508.175 238.347 459.235 238.076 410.295 237.67C408.984 227.962 414.547 211.978 405.139 209.72C381.664 204.121 369.18 190.259 355.34 171.656C340.866 152.196 335.619 137.34 352.671 117.202C357.963 110.971 365.472 106.321 365.879 96.974C387.77 78.642 410.341 61.0325 431.328 41.7523C447.566 26.8519 463.351 28.3871 478.459 40.5332C552.999 100.541 626.997 161.136 701.221 221.55C709.679 228.459 713.298 237.579 713.75 248.19C716.374 309.778 717.188 371.412 713.524 433C703.528 411.011 677.746 397.646 680.325 368.206C681.229 357.866 638.531 330.458 633.782 336.012C622.338 349.377 610.578 342.153 598.547 339.669L598.502 339.624Z" fill="#A65EF6"/>
<path d="M485.254 507.538C492.121 549.577 486.7 591.887 488.281 634.061C489.5 667.215 490.043 700.368 489.997 733.521C489.997 765.411 469.172 792.385 439.358 801.136C416.907 807.721 376.928 775.335 376.612 749.579C375.528 666.673 374.76 583.768 373.992 500.862C373.631 461.619 373.766 460.852 334.917 459.815C272.216 458.146 209.47 456.928 146.769 456.928C125.809 456.928 115.69 450.794 117.136 428.556C118.355 410.198 117.407 391.704 117.452 373.301C117.497 357.062 123.912 346.778 141.891 347.004C185.212 347.5 228.488 347.816 271.81 348.221C277.998 361.302 293.628 361.302 303.07 371.857C322.042 393.148 343.5 413.355 375.889 413.536C384.382 413.536 385.692 422.286 388.086 429.639C393.236 445.426 398.611 462.206 422.192 452.192C431.814 448.087 435.609 459.95 442.114 462.612C463.752 471.452 458.963 504.425 485.345 507.583L485.254 507.538Z" fill="#652FC8"/>
<path d="M598.702 340.38C610.636 342.856 622.302 350.06 633.653 336.733C638.364 331.195 680.718 358.525 679.821 368.835C677.264 398.191 702.838 411.518 712.753 433.445C716.387 472.301 715.176 511.157 712.215 549.968C693.505 550.463 678.34 545.285 663.534 531.643C654.965 523.764 644.959 495.939 624.231 521.017C621.674 524.079 616.469 518.361 615.482 513.453C614.091 506.474 614.315 498.775 606.374 494.678C599.464 508.906 610.547 525.925 598.836 538.982C596.862 472.796 596.01 406.566 598.702 340.38Z" fill="#8847DF"/>
<path d="M485.195 507C458.856 503.898 463.637 471.035 442.033 462.178C435.538 459.526 431.75 447.702 422.143 451.793C398.645 461.774 393.233 445.095 388.091 429.315C385.701 421.942 384.393 413.311 375.914 413.266C343.531 413.131 322.153 392.946 303.21 371.726C293.784 361.206 278.179 361.161 272 348.169C332.436 347.719 392.917 347.09 453.353 347C473.829 347 486.999 357.385 486.999 378.514C486.999 421.358 490.201 464.246 485.15 507H485.195Z" fill="#8847DF"/>
<path d="M599.018 539.297C610.75 526.242 599.647 509.226 606.57 495C614.526 499.097 614.301 506.795 615.695 513.772C616.683 518.679 621.898 524.397 624.46 521.335C645.227 496.261 655.296 524.081 663.837 531.959C678.67 545.6 693.909 550.777 712.608 550.282C717.508 575.357 709.416 595.209 689.234 610.695C668.871 626.361 649.318 643.153 628.461 658.099C607.154 673.36 598.479 669.218 598.119 643.963C597.669 609.075 598.613 574.186 598.973 539.297H599.018Z" fill="#652FC8"/>
<path d="M185.436 564.873C250.416 555.662 270.247 545.457 281.219 557.468C288.549 565.505 280.994 571.511 281.219 609.26C281.489 654.279 292.461 683.63 275.733 696.725C274.968 697.312 274.564 697.673 273.844 698.034C261.568 704.31 243.985 679.475 192.766 638.836C144.425 600.455 118.029 589.257 121.267 577.968C123.605 569.84 139.029 571.421 185.391 564.873H185.436Z" fill="#652FC8"/>
<path d="M365.345 97.0451C364.985 106.421 357.469 111.064 352.203 117.239C335.235 137.344 340.456 152.219 354.858 171.602C368.63 190.219 381.053 204.057 404.412 209.602C413.773 211.855 408.237 227.768 409.542 237.504C370.881 237.684 332.264 237.865 293.603 238C278.75 221.953 263.898 205.95 249 189.903C286.536 157.403 323.848 124.587 365.3 97L365.345 97.0451Z" fill="#8847DF"/>
<path d="M248.955 191C263.955 206.831 278.955 222.617 294 238.448C273.864 238.937 253.728 239.515 233.592 239.96C225.183 240.138 216.137 240.137 212.819 230.71C209.637 221.594 216.319 215.324 222.637 210.166C231.001 203.318 240.137 197.359 248.955 191.044V191Z" fill="#652FC8"/>
</svg>
